<mxfile host="app.diagrams.net" modified="2023-11-05T15:35:00.437Z" agent="Mozilla/5.0 (Windows NT 10.0; Win64; x64) AppleWebKit/537.36 (KHTML, like Gecko) Chrome/118.0.0.0 Safari/537.36 Edg/118.0.2088.69" etag="IVeWosAPTr_Y9jU-fN8O" version="22.0.8" type="device">
  <diagram name="Page-1" id="rFitln16YWHum4f_cVsc">
    <mxGraphModel dx="1044" dy="979" grid="1" gridSize="10" guides="1" tooltips="1" connect="1" arrows="1" fold="1" page="1" pageScale="1" pageWidth="850" pageHeight="1100" math="0" shadow="0">
      <root>
        <mxCell id="0" />
        <mxCell id="1" parent="0" />
        <mxCell id="CywGKh0OXpV9jEUiw48m-1" value="Listener01" style="sketch=0;aspect=fixed;pointerEvents=1;shadow=0;dashed=0;html=1;strokeColor=none;labelPosition=center;verticalLabelPosition=bottom;verticalAlign=top;align=center;fillColor=#00188D;shape=mxgraph.mscae.enterprise.plug_and_play" vertex="1" parent="1">
          <mxGeometry x="385" y="220" width="40" height="50" as="geometry" />
        </mxCell>
        <mxCell id="CywGKh0OXpV9jEUiw48m-2" value="&lt;font color=&quot;#080808&quot;&gt;/checkin&lt;/font&gt;" style="verticalLabelPosition=bottom;html=1;verticalAlign=top;align=center;strokeColor=#ff0000;fillColor=#fa0000;shape=mxgraph.azure.service_endpoint;fontColor=#ffffff;" vertex="1" parent="1">
          <mxGeometry x="270" y="310" width="50" height="20" as="geometry" />
        </mxCell>
        <mxCell id="CywGKh0OXpV9jEUiw48m-3" value="/command" style="verticalLabelPosition=bottom;html=1;verticalAlign=top;align=center;strokeColor=none;fillColor=#44ff00;shape=mxgraph.azure.service_endpoint;" vertex="1" parent="1">
          <mxGeometry x="380" y="310" width="50" height="20" as="geometry" />
        </mxCell>
        <mxCell id="CywGKh0OXpV9jEUiw48m-4" value="/data" style="verticalLabelPosition=bottom;html=1;verticalAlign=top;align=center;strokeColor=none;fillColor=#f00000;shape=mxgraph.azure.service_endpoint;" vertex="1" parent="1">
          <mxGeometry x="500" y="310" width="50" height="20" as="geometry" />
        </mxCell>
        <mxCell id="CywGKh0OXpV9jEUiw48m-5" value="Green: GET&lt;br&gt;Red: POST" style="rounded=0;whiteSpace=wrap;html=1;" vertex="1" parent="1">
          <mxGeometry x="60" y="50" width="200" height="120" as="geometry" />
        </mxCell>
        <mxCell id="CywGKh0OXpV9jEUiw48m-10" value="" style="shape=mxgraph.mockup.markup.redX;fillColor=#ff0000;html=1;shadow=0;whiteSpace=wrap;strokeColor=none;" vertex="1" parent="1">
          <mxGeometry x="384.85616438356163" y="594" width="39.93150684931507" height="28" as="geometry" />
        </mxCell>
        <mxCell id="CywGKh0OXpV9jEUiw48m-14" style="rounded=0;orthogonalLoop=1;jettySize=auto;html=1;" edge="1" parent="1" source="CywGKh0OXpV9jEUiw48m-6" target="CywGKh0OXpV9jEUiw48m-3">
          <mxGeometry relative="1" as="geometry" />
        </mxCell>
        <mxCell id="CywGKh0OXpV9jEUiw48m-15" value="GET" style="edgeLabel;html=1;align=center;verticalAlign=middle;resizable=0;points=[];" vertex="1" connectable="0" parent="CywGKh0OXpV9jEUiw48m-14">
          <mxGeometry x="0.1997" y="-5" relative="1" as="geometry">
            <mxPoint as="offset" />
          </mxGeometry>
        </mxCell>
        <mxCell id="CywGKh0OXpV9jEUiw48m-16" style="rounded=0;orthogonalLoop=1;jettySize=auto;html=1;exitX=0.5;exitY=0;exitDx=0;exitDy=0;exitPerimeter=0;" edge="1" parent="1" source="CywGKh0OXpV9jEUiw48m-6" target="CywGKh0OXpV9jEUiw48m-4">
          <mxGeometry relative="1" as="geometry" />
        </mxCell>
        <mxCell id="CywGKh0OXpV9jEUiw48m-17" value="POST results" style="edgeLabel;html=1;align=center;verticalAlign=middle;resizable=0;points=[];" vertex="1" connectable="0" parent="CywGKh0OXpV9jEUiw48m-16">
          <mxGeometry x="0.1859" y="-3" relative="1" as="geometry">
            <mxPoint as="offset" />
          </mxGeometry>
        </mxCell>
        <mxCell id="CywGKh0OXpV9jEUiw48m-6" value="Compromised Host" style="verticalLabelPosition=bottom;html=1;verticalAlign=top;align=center;strokeColor=none;fillColor=#00BEF2;shape=mxgraph.azure.laptop;pointerEvents=1;direction=east;" vertex="1" parent="1">
          <mxGeometry x="354" y="580" width="106.00000000000001" height="70" as="geometry" />
        </mxCell>
        <mxCell id="CywGKh0OXpV9jEUiw48m-12" style="rounded=0;orthogonalLoop=1;jettySize=auto;html=1;entryX=0.4;entryY=2;entryDx=0;entryDy=0;entryPerimeter=0;exitX=0.5;exitY=0;exitDx=0;exitDy=0;exitPerimeter=0;" edge="1" parent="1" source="CywGKh0OXpV9jEUiw48m-6" target="CywGKh0OXpV9jEUiw48m-2">
          <mxGeometry relative="1" as="geometry" />
        </mxCell>
        <mxCell id="CywGKh0OXpV9jEUiw48m-13" value="POST info" style="edgeLabel;html=1;align=center;verticalAlign=middle;resizable=0;points=[];" vertex="1" connectable="0" parent="CywGKh0OXpV9jEUiw48m-12">
          <mxGeometry x="0.307" y="-3" relative="1" as="geometry">
            <mxPoint x="-3" y="-8" as="offset" />
          </mxGeometry>
        </mxCell>
        <mxCell id="CywGKh0OXpV9jEUiw48m-20" value="Steps:&lt;br&gt;1) POST to checkin&lt;br&gt;2) GET command&amp;nbsp;&lt;br&gt;&amp;lt;do actions based on command&amp;gt;&lt;br&gt;3) POST results of command upon completion&lt;br&gt;&amp;lt;sleep&amp;gt;&lt;br&gt;goto 1)" style="rounded=0;whiteSpace=wrap;html=1;" vertex="1" parent="1">
          <mxGeometry x="20" y="622" width="280" height="190" as="geometry" />
        </mxCell>
      </root>
    </mxGraphModel>
  </diagram>
</mxfile>
